<svg xmlns="http://www.w3.org/2000/svg" viewBox="0 0 2160 2160">
  <title>logo-text</title>
  <rect width="2160" height="2160"/>
  <g>
    <path d="M797.42,890c-24.73,4.21-42.68,12.13-56.9,24.9-17,15-30.71,39.23-39.12,68.54-7.76,26.68-9.87,46.4-9.87,94.73,0,47,1.3,61.42,8.05,90,10.51,43.81,30.23,74,58.68,89.08,22.13,11.79,58.2,16,82.77,9.53,48-12.61,77-51.89,88.42-119.94,2.42-14.56,2.92-26.68,2.92-67.1,0-52.53-1.14-65.3-8.25-91.65-13.9-51.89-41.55-84.54-80.67-94.89C834,890.64,805.23,888.53,797.42,890Zm39.44,43.49c12.78,6,26.84,20.37,33.14,33.62,11.32,23.61,15.36,53.52,15.36,112.64,0,45.75-1.45,63.54-7.11,88.43-6.31,27.15-21.5,48.33-41.39,58-8.23,3.87-11.47,4.52-24.13,4.69-13.08,0-15.68-.49-25.06-5-18.26-8.73-33-27.16-39.44-49-12.94-43.8-13.42-139.8-1.13-188.17,8-31.51,23.76-50.92,47.52-58.67,11-3.51,30.93-1.93,42.24,3.44Z" style="fill: #969696"/>
    <path d="M1076.6,890.64c-33.46,6-60.13,23.75-76,50.28-6.46,10.83-16.65,40.23-15.19,43.81.8,2.59,43,10.19,44.78,8.25.64-.64,1.94-5.49,3-10.67,4.85-22.31,18.6-40.57,37.35-49.46,7.92-3.72,10.83-4.21,26.67-4.21,16.17,0,18.75.49,27.81,4.69,11.79,5.33,23.27,16.81,28.29,28.16,2.26,4.85,3.71,12.12,4.2,20.69,1.29,23.28-6.14,39.12-23.6,50.28-12.78,8.25-27.65,12.94-44.78,14.55l-14.55,1.29-1.94,14.56c-1,7.91-1.94,16.8-1.94,19.56l-.16,5,10.18-2.27c6.47-1.61,15.84-2.26,26.35-1.78,15.09.49,17.3,1,28.46,6.63,28.61,14.08,43,43,38.3,76.44-6.95,49.94-61.59,80-105.72,58.19-7.11-3.56-14.38-8.73-18.58-13.26-7.93-8.56-18.11-29.57-21.19-43.32l-2.1-9.38-6.46.81c-3.73.49-14.23,1.78-23.44,2.92l-16.6,2,1,7.91c5.34,39.29,32.66,74.2,70.16,89.4,10.84,4.37,34.12,8.73,46.56,8.73,13.07,0,32.33-3.08,45.91-7.44,16-5,30.55-13.74,44-26.34,23.28-21.66,34.76-46.57,36.38-77.76,1.45-29.9-6.15-53.31-23.13-71.13-10.84-11.48-20.37-17.78-34.27-22.63l-10.19-3.72,8.57-4.85c11.64-6.63,27-22.63,32.5-34.11,6.45-13.08,9.69-30.06,8.4-43-5-51.56-46.88-87.5-104.27-89.72C1092,889.5,1080.8,889.82,1076.6,890.64Z" style="fill: #969696"/>
    <path d="M1426.25,917.31V944h46.89l-.33-26.35-.48-26.15-22.95-.48-23.14-.48Z" style="fill: #969696"/>
    <path d="M1602.46,990.05c-33.3,7.11-53.67,21.33-65.14,45.74-4.86,10.19-5.18,11.81-5.18,29.43,0,16.81.49,19.4,4.36,28,12.13,25.71,28.45,35.73,82.13,50.44,12,3.24,28.77,7.76,37.21,10.06,23.45,6.3,34.76,12.06,39.61,20.52,10.35,17.62.65,40.58-21.33,50.6-22.31,10.19-58.85,8.57-78.25-3.72-12.07-7.59-25.7-28.16-25.7-39.11-.17-6.31-1.62-6.47-24.24-3.08-12,1.78-22.13,3.56-22.48,3.72-.32.32.65,5.49,2.1,11.48,6.14,24.24,21,46.39,39,57.87,18.1,11.64,42,17.29,73.55,17.29,24.57,0,43-3.88,62.25-13.25,54.31-26.15,64-99.1,17.09-129.32-11-7-28.61-13.07-75.33-26.15-22.12-6.14-43.31-12.45-46.87-14.08-13.9-6.13-21.67-19.11-19.24-32,1.78-9.71,15.08-21.82,27.64-25.38,13.74-3.72,43.48-3.88,54.64,0,16.65,5.5,29.58,19.23,32.49,34.27.48,2.91,1.46,5.49,2.1,5.82,1.46.81,42.35-5,43.49-6.3,1.62-1.46-4.2-21.67-8.89-31.53-8.73-18.11-28.29-31.84-55-38.95C1656,988,1618,986.65,1602.46,990.05Z" style="fill: #969696"/>
    <path d="M413,1095.44c.81,112.51.48,109.29,11.8,132.57,12.44,25.37,43,41,79.7,41.23,30.87,0,52.37-8.73,73.55-29.74l12.45-12.45v37h42V994.1H585.65v82.76c-.16,90.2-1,100.71-8.89,117-12,24.41-43.48,39.61-72.25,34.76-13.42-2.26-21-5.82-29.11-14.08s-12.28-17.29-14.22-31.52c-.8-6.62-1.62-51.72-1.62-100.57V994.1h-47Z" style="fill: #969696"/>
    <path d="M1426.25,1129.08v135.14l23.14-.49,22.95-.48.48-134.67.33-134.48h-46.89Z" style="fill: #969696"/>
    <path d="M1294.35,1212.81c-.33,1.13-.49,12.94-.33,26.15l.49,24.25,26.35.48,26.15.32v-53.3h-25.84C1301.46,1210.71,1295,1211.19,1294.35,1212.81Z" style="fill: #969696"/>
  </g>
</svg>
