<?xml version="1.0" encoding="iso-8859-1"?>
<!-- Generator: Adobe Illustrator 24.0.2, SVG Export Plug-In . SVG Version: 6.00 Build 0)  -->
<svg version="1.1" id="Layer_1" xmlns="http://www.w3.org/2000/svg" xmlns:xlink="http://www.w3.org/1999/xlink" x="0px" y="0px"
	 viewBox="0 0 2160 2160" style="enable-background:new 0 0 2160 2160;" xml:space="preserve">
<rect x="0" style="fill:none;" width="2160" height="2160"/>
<g transform="translate(0.000000,2160.000000) scale(0.100000,-0.100000)">
	<path d="M4082.904,10808l3-4163l1590-3l1589-2l-39,40l-39,40h-1508h-1508v4085v4085h1503h1503l39,40l39,40h-1587h-1587
		L4082.904,10808z"/>
	<path d="M9195.904,14930l-39-40h297h297v40v40h-258h-258L9195.904,14930z"/>
	<path d="M10050.904,14930v-40h360h360v40v40h-360h-360V14930z"/>
	<path d="M11080.904,14930v-40h485h485v40v40h-485h-485V14930z"/>
	<path d="M12350.904,14930v-40h580h580v40v40h-580h-580V14930z"/>
	<path d="M13810.904,14930v-40h735h735v40v40h-735h-735V14930z"/>
	<path d="M15580.904,14930v-40h920h921l42,40l42,39l-962,1h-963V14930z"/>
	<path d="M9040.904,11974c-153-26-264-75-352-154c-105-93-190-243-242-424c-48-165-61-287-61-586c0-291,8-380,50-557
		c65-271,187-458,363-551c137-73,360-99,512-59c297,78,476,321,547,742c15,90,18,165,18,415c0,325-7,404-51,567
		c-86,321-257,523-499,587C9266.904,11970,9088.904,11983,9040.904,11974z M9284.904,11705c79-37,166-126,205-208
		c70-146,95-331,95-697c0-283-9-393-44-547c-39-168-133-299-256-359c-51-24-71-28-149-29c-81,0-97,3-155,31c-113,54-204,168-244,303
		c-80,271-83,865-7,1164c50,195,147,315,294,363C9091.904,11748,9214.904,11738,9284.904,11705z"/>
	<path d="M10767.904,11970c-207-37-372-147-470-311c-40-67-103-249-94-271c5-16,266-63,277-51c4,4,12,34,19,66
		c30,138,115,251,231,306c49,23,67,26,165,26c100,0,116-3,172-29c73-33,144-104,175-174c14-30,23-75,26-128c8-144-38-242-146-311
		c-79-51-171-80-277-90l-90-8l-12-90c-6-49-12-104-12-121l-1-31l63,14c40,10,98,14,163,11c93-3,107-6,176-41c177-87,266-266,237-473
		c-43-309-381-495-654-360c-44,22-89,54-115,82c-49,53-112,183-131,268l-13,58l-40-5c-23-3-88-11-145-18l-103-13l6-49
		c33-243,202-459,434-553c67-27,211-54,288-54c81,0,200,19,284,46c99,31,189,85,272,163c144,134,215,288,225,481
		c9,185-38,330-143,440c-67,71-126,110-212,140l-63,23l53,30c72,41,167,140,201,211c40,81,60,186,52,266c-31,319-290,541-645,555
		C10862.904,11977,10793.904,11975,10767.904,11970z"/>
	<path d="M12930.904,11805v-165h145h145l-2,163l-3,162l-142,3l-143,3V11805z"/>
	<path d="M14020.904,11355c-206-44-332-132-403-283c-30-63-32-73-32-182c0-104,3-120,27-173c75-159,176-221,508-312
		c74-20,178-48,230-62c145-39,215-75,245-127c64-109,4-251-132-313c-138-63-364-53-484,23c-75,47-159,174-159,242
		c-1,39-10,40-150,19c-74-11-137-22-139-23c-2-2,4-34,13-71c38-150,130-287,241-358c112-72,260-107,455-107c152,0,266,24,385,82
		c336,162,396,613,106,800c-68,43-177,81-466,162c-137,38-268,77-290,87c-86,38-134,118-119,198c11,60,93,135,171,157
		c85,23,269,24,338,0c103-34,183-119,201-212c3-18,9-34,13-36c9-5,262,31,269,39c10,9-26,134-55,195c-54,112-175,197-340,241
		C14351.904,11368,14116.904,11376,14020.904,11355z"/>
	<path d="M6662.904,10703c5-696,3-676,73-820c77-157,266-254,493-255c191,0,324,54,455,184l77,77v-115v-114h130h130v835v835h-145
		h-145v-512c-1-558-6-623-55-724c-74-151-269-245-447-215c-83,14-130,36-180,87c-51,51-76,107-88,195c-5,41-10,320-10,622v547h-146
		h-145L6662.904,10703z"/>
	<path d="M12930.904,10495v-836l143,3l142,3l3,833l2,832h-145h-145V10495z"/>
	<path d="M17430.904,10640V8680V6720h-3247.001l-3247.999-1l42-39l42-40l3248,2l3248,3l3,2038c1,1178,0.086,2037,0.086,2037
		L17430.904,10640z"/>
	<path d="M12114.904,9977c-2-7-3-80-2-162l3-150l163-3l162-2v165v165h-160C12158.904,9990,12118.904,9987,12114.904,9977z"/>
</g>
</svg>
