<svg xmlns="http://www.w3.org/2000/svg" viewBox="0 0 2160 1338.9">
  <title>logo2</title>
  <g>
    <path d="M.32,1079.52.8,1748.65l255.57.48,255.4.32L505.5,1743l-6.26-6.43H14.47V423.41H497.63L503.9,417l6.27-6.43H0Z" transform="translate(0 -410.55)" style="fill: #fff"/>
    <path d="M822.15,417l-6.27,6.43h95.47V410.55H828.42Z" transform="translate(0 -410.55)" style="fill: #fff"/>
    <path d="M959.57,417v6.43H1075.3V410.55H959.57Z" transform="translate(0 -410.55)" style="fill: #fff"/>
    <path d="M1125.13,417v6.43H1281V410.55H1125.13Z" transform="translate(0 -410.55)" style="fill: #fff"/>
    <path d="M1329.26,417v6.43h186.45V410.55H1329.26Z" transform="translate(0 -410.55)" style="fill: #fff"/>
    <path d="M1563.93,417v6.43h236.28V410.55H1563.93Z" transform="translate(0 -410.55)" style="fill: #fff"/>
    <path d="M1848.42,417v6.43h295.91l6.75-6.43,6.76-6.27-154.63-.16H1848.42Z" transform="translate(0 -410.55)" style="fill: #fff"/>
    <path d="M797.23,892.1c-24.59,4.18-42.43,12.06-56.57,24.76-16.88,14.94-30.54,39-38.9,68.15-7.72,26.52-9.81,46.13-9.81,94.19,0,46.77,1.29,61.07,8,89.52,10.45,43.56,30.06,73.62,58.35,88.57,22,11.73,57.86,15.91,82.29,9.48,47.74-12.54,76.51-51.59,87.92-119.26,2.41-14.47,2.9-26.52,2.9-66.71,0-52.23-1.13-64.93-8.2-91.13-13.82-51.6-41.31-84.06-80.21-94.35C833.56,892.75,805,890.66,797.23,892.1Zm39.22,43.24c12.7,5.95,26.68,20.25,32.95,33.43,11.25,23.47,15.27,53.21,15.27,112,0,45.49-1.44,63.17-7.07,87.92-6.27,27-21.38,48.06-41.15,57.71-8.19,3.85-11.41,4.5-24,4.66-13,0-15.59-.48-24.91-5-18.16-8.68-32.79-27-39.22-48.71-12.86-43.55-13.34-139-1.12-187.09,8-31.34,23.62-50.63,47.25-58.34,11-3.49,30.75-1.92,42,3.42Z" transform="translate(0 -410.55)" style="fill: #fff"/>
    <path d="M1074.82,892.75c-33.27,5.94-59.79,23.62-75.55,50-6.42,10.77-16.55,40-15.1,43.56.8,2.57,42.75,10.13,44.52,8.2.64-.64,1.93-5.46,3-10.61,4.82-22.18,18.49-40.34,37.13-49.18,7.88-3.7,10.77-4.18,26.52-4.18,16.08,0,18.65.48,27.65,4.66,11.73,5.3,23.14,16.72,28.13,28,2.25,4.82,3.69,12,4.18,20.57,1.28,23.15-6.11,38.9-23.47,50-12.7,8.2-27.49,12.86-44.52,14.46l-14.47,1.29-1.93,14.47c-1,7.87-1.93,16.71-1.93,19.45l-.16,5,10.13-2.25c6.43-1.61,15.75-2.25,26.2-1.77,15,.48,17.2,1,28.29,6.59,28.45,14,42.75,42.75,38.09,76-6.91,49.66-61.24,79.56-105.12,57.86-7.07-3.54-14.3-8.68-18.48-13.18-7.88-8.52-18-29.41-21.06-43.08l-2.09-9.32-6.43.8c-3.7.49-14.14,1.77-23.3,2.9l-16.51,2,1,7.87c5.31,39.06,32.47,73.78,69.76,88.89,10.77,4.34,33.92,8.68,46.29,8.68,13,0,32.15-3.06,45.65-7.4,15.91-5,30.38-13.66,43.72-26.19,23.15-21.54,34.56-46.3,36.17-77.32,1.44-29.73-6.11-53-23-70.72-10.77-11.41-20.25-17.68-34.07-22.5l-10.13-3.7,8.52-4.82c11.57-6.59,26.84-22.5,32.31-33.92,6.42-13,9.64-29.89,8.35-42.75-5-51.27-46.61-87-103.67-89.21C1090.09,891.62,1079,891.94,1074.82,892.75Z" transform="translate(0 -410.55)" style="fill: #fff"/>
    <path d="M1422.48,919.27v26.52h46.62l-.33-26.2-.48-26-22.82-.48-23-.48Z" transform="translate(0 -410.55)" style="fill: #fff"/>
    <path d="M1597.68,991.6c-33.11,7.07-53.36,21.21-64.77,45.48-4.83,10.13-5.15,11.74-5.15,29.26,0,16.71.49,19.29,4.34,27.8,12.06,25.56,28.29,35.53,81.66,50.15,11.89,3.22,28.61,7.72,37,10,23.31,6.27,34.56,12,39.38,20.41,10.29,17.52.65,40.35-21.21,50.31-22.18,10.13-58.51,8.52-77.8-3.7-12-7.55-25.55-28-25.55-38.89-.17-6.27-1.61-6.43-24.11-3.06-11.9,1.77-22,3.54-22.35,3.7-.32.32.65,5.46,2.09,11.41,6.11,24.11,20.9,46.13,38.74,57.54,18,11.58,41.79,17.2,73.13,17.2,24.43,0,42.76-3.86,61.89-13.18,54-26,63.65-98.53,17-128.58-10.93-6.92-28.45-13-74.9-26-22-6.11-43.07-12.38-46.61-14-13.82-6.1-21.54-19-19.13-31.82,1.77-9.65,15-21.7,27.49-25.24,13.66-3.69,43.23-3.85,54.32,0,16.56,5.47,29.42,19.13,32.31,34.08.48,2.89,1.45,5.46,2.09,5.79,1.45.8,42.11-5,43.24-6.27,1.61-1.45-4.18-21.54-8.84-31.35-8.68-18-28.13-31.66-54.65-38.73C1650.88,989.51,1613.11,988.22,1597.68,991.6Z" transform="translate(0 -410.55)" style="fill: #fff"/>
    <path d="M415,1096.39c.81,111.87.48,108.66,11.74,131.81,12.37,25.23,42.75,40.82,79.24,41,30.7,0,52.07-8.68,73.13-29.57l12.38-12.38V1264h41.79V995.62H586.67v82.29c-.16,89.69-1,100.14-8.84,116.37-11.89,24.27-43.23,39.38-71.84,34.56-13.34-2.25-20.9-5.79-28.94-14-8.19-8.19-12.21-17.19-14.14-31.34-.8-6.59-1.61-51.43-1.61-100V995.62H414.53Z" transform="translate(0 -410.55)" style="fill: #fff"/>
    <path d="M1422.48,1129.83V1264.2l23-.48,22.82-.48.48-133.9.33-133.72h-46.62Z" transform="translate(0 -410.55)" style="fill: #fff"/>
    <path d="M2145.78,1106.52v630.07h-521.9l-522.06.16,6.75,6.27,6.75,6.43,522.06-.32,522.06-.48.48-327.58c.17-189.34,0-327.41,0-327.41Z" transform="translate(0 -410.55)" style="fill: #fff"/>
    <path d="M1291.33,1213.09c-.33,1.12-.49,12.86-.33,26l.49,24.11,26.2.48,26,.32v-53H1318C1298.4,1211,1292,1211.48,1291.33,1213.09Z" transform="translate(0 -410.55)" style="fill: #fff"/>
  </g>
</svg>
